Coordinates
version=1
nRows=10
nColumns=63
inDegrees=yes

Units are S.I. units (second, meters, Newtons, ...)
If the header above contains a line with 'inDegrees', this indicates whether rotational values are in degrees (yes) or radians (no).

endheader
time	pelvis_tilt	pelvis_list	pelvis_rotation	pelvis_tx	pelvis_ty	pelvis_tz	hip_flexion_r	hip_adduction_r	hip_rotation_r	knee_angle_r	knee_angle_r_beta	ankle_angle_r	subtalar_angle_r	mtp_angle_r	hip_flexion_l	hip_adduction_l	hip_rotation_l	knee_angle_l	knee_angle_l_beta	ankle_angle_l	subtalar_angle_l	mtp_angle_l	L5_S1_Flex_Ext	L5_S1_Lat_Bending	L5_S1_axial_rotation	L4_L5_Flex_Ext	L4_L5_Lat_Bending	L4_L5_axial_rotation	L3_L4_Flex_Ext	L3_L4_Lat_Bending	L3_L4_axial_rotation	L2_L3_Flex_Ext	L2_L3_Lat_Bending	L2_L3_axial_rotation	L1_L2_Flex_Ext	L1_L2_Lat_Bending	L1_L2_axial_rotation	L1_T12_Flex_Ext	L1_T12_Lat_Bending	L1_T12_axial_rotation	Abs_r3	Abs_r2	Abs_r1	Abs_t1	Abs_t2	neck_flexion	neck_bending	neck_rotation	arm_flex_r	arm_add_r	arm_rot_r	elbow_flex_r	pro_sup_r	wrist_flex_r	wrist_dev_r	arm_flex_l	arm_add_l	arm_rot_l	elbow_flex_l	pro_sup_l	wrist_flex_l	wrist_dev_l
      1.08474576	      3.11593020	     -6.09443369	     99.39778266	      0.20982324	      1.00133403	      0.42695329	      5.83039305	      2.46301725	     -7.92217813	      4.87268432	      0.08504438	     22.62082001	     -7.43936178	      0.00000000	      5.57968300	     -0.78139995	     10.17285807	      4.35772833	      0.07605671	     19.93268865	     -4.90287606	      0.00000000	      0.22158842	      0.47014919	     -1.09851730	      0.41151185	      0.62529843	     -1.16717463	      0.36404761	      1.14312074	     -1.16717463	      0.25325340	      1.14312074	     -0.96120264	      0.20576700	      0.95872823	     -0.89254530	      0.12661562	      0.72826110	     -0.82388797	      1.58278389	      5.31842169	     -6.10962365	      0.00000000	      0.00000000	     27.90891709	     -5.75606700	     -7.84922248	     15.71336513	     -9.15629349	     78.84914521	     50.87120702	     86.60530589	      4.70461169	     32.29599765	     17.21853547	     -6.35258374	     76.31264015	     44.54977103	     89.09660857	     37.86495847	     34.16777356
      1.10169492	      3.07192552	     -6.06019960	     99.36839283	      0.20987001	      1.00156357	      0.42694345	      5.84354367	      2.39344515	     -8.19307706	      4.97449863	      0.08682138	     22.86758796	     -6.92866242	      0.00000000	      5.58415602	     -0.77235899	      9.33830275	      4.45904608	      0.07782504	     20.18192759	     -3.79128770	      0.00000000	      0.21049181	      0.46047143	     -1.09992026	      0.39090434	      0.61242700	     -1.16866528	      0.34581700	      1.11959023	     -1.16866528	      0.24057109	      1.11959023	     -0.96243023	      0.19546270	      0.93899333	     -0.89368521	      0.12027502	      0.71327024	     -0.82494020	      1.50352195	      5.20894487	     -6.11742651	      0.00000000	      0.00000000	     27.93397816	     -6.12915290	     -8.24158250	     16.08437024	     -9.01559662	     79.93511190	     50.66430954	     86.67751502	      4.85343440	     32.24969111	     17.31197305	     -6.27977351	     76.35025249	     44.40075653	     89.09564365	     38.26969752	     34.15580376
      1.11864407	      3.03419553	     -5.98374875	     99.48943900	      0.20974727	      1.00180541	      0.42664129	      5.69498421	      2.34746041	     -8.55597079	      4.88994314	      0.08534561	     23.05527956	     -6.43875111	      0.00000000	      5.49897009	     -0.76514596	      8.74619855	      4.48046853	      0.07819893	     20.31159396	     -2.85719738	      0.00000000	      0.19815381	      0.45454988	     -1.13503138	      0.36799144	      0.60455134	     -1.20597084	      0.32554689	      1.10519257	     -1.20597084	      0.22646999	      1.10519257	     -0.99315246	      0.18400563	      0.92691811	     -0.92221300	      0.11322509	      0.70409776	     -0.85127353	      1.41539284	      5.14195912	     -6.31270402	      0.00000000	      0.00000000	     27.97651390	     -6.49694294	     -8.40000465	     16.29874022	     -8.88443950	     80.78146525	     50.48560989	     86.88985474	      4.86011637	     32.12591968	     17.29169043	     -6.30542379	     76.31624009	     44.42427817	     89.06221562	     38.27954232	     34.14670693
      1.13559322	      3.04533841	     -6.09636898	     99.57146042	      0.20982791	      1.00186408	      0.42633696	      5.74326297	      2.46089527	     -6.38172046	      4.72471435	      0.08246182	     22.15047900	     -9.87334937	      0.00000000	      5.54661967	     -0.70425752	     10.33744467	      4.38672299	      0.07656276	     19.61559220	     -5.23874950	      0.00000000	      0.22028302	      0.44964018	     -1.14580452	      0.40908760	      0.59802144	     -1.21741730	      0.36190297	      1.09325513	     -1.21741730	      0.25176146	      1.09325513	     -1.00257895	      0.20455481	      0.91690625	     -0.93096617	      0.12586972	      0.69649264	     -0.85935339	      1.57345959	      5.08641964	     -6.37262099	      0.00000000	      0.00000000	     27.99562444	     -6.88932949	     -8.70189341	     16.06796889	     -8.63653279	     80.61496435	     49.91253106	     87.57072458	      5.68971037	     31.46961768	     17.13225649	     -6.20577987	     76.04315963	     44.21689869	     89.09560725	     38.71927988	     34.15359005
      1.15254237	      3.01988225	     -6.10533969	     99.56130695	      0.20989365	      1.00199082	      0.42611122	      5.73056465	      2.43957452	     -6.18368498	      4.70798634	      0.08216986	     22.10256154	    -10.08998968	      0.00000000	      5.52397068	     -0.67755728	     10.49134737	      4.40156015	      0.07682172	     19.33210631	     -5.71558947	      0.00000000	      0.22661624	      0.44339204	     -1.12300538	      0.42084902	      0.58971141	     -1.19319322	      0.37230782	      1.07806340	     -1.19319322	      0.25899970	      1.07806340	     -0.98262971	      0.21043584	      0.90416504	     -0.91244187	      0.12948852	      0.68681427	     -0.84225404	      1.61869715	      5.01573940	     -6.24581904	      0.00000000	      0.00000000	     28.02407198	     -7.23058772	     -8.97002413	     15.95838614	     -8.53624230	     80.77922778	     49.61978921	     87.54006397	      5.56404810	     31.07331695	     17.21362435	     -6.13727841	     76.42018529	     44.19678262	     89.09351021	     38.87067999	     34.14049306
      1.16949153	      3.01543047	     -6.09389672	     99.55707585	      0.20987753	      1.00211038	      0.42590483	      5.68329682	      2.45217900	     -5.84242170	      4.65459842	      0.08123807	     21.95396128	    -10.49068093	      0.00000000	      5.50335559	     -0.67373689	     10.52486262	      4.47322699	      0.07807254	     19.04376839	     -6.06068683	      0.00000000	      0.23898672	      0.44141679	     -1.09906252	      0.44382224	      0.58708434	     -1.16775393	      0.39263128	      1.07326079	     -1.16775393	      0.27313792	      1.07326079	     -0.96167971	      0.22192307	      0.90013713	     -0.89298830	      0.13655701	      0.68375461	     -0.82429689	      1.70705823	      4.99339505	     -6.11265602	      0.00000000	      0.00000000	     28.05474437	     -7.27024142	     -8.79342948	     15.85700141	     -8.49502800	     80.92834966	     49.36395161	     87.26246641	      5.50096784	     30.66887971	     17.29055792	     -6.05441746	     76.88140148	     44.18658969	     89.08678445	     38.90698566	     34.11990140
      1.18644068	      3.00357557	     -6.08469337	     99.53757889	      0.20979492	      1.00213205	      0.42556218	      5.62964614	      2.44218443	     -5.69520063	      4.60982943	      0.08045670	     21.96461121	    -10.51778007	      0.00000000	      5.39378595	     -0.63612427	     11.36736791	      4.39795281	      0.07675876	     18.37438382	     -7.64927971	      0.00000000	      0.26118541	      0.43892769	     -1.09691529	      0.48504742	      0.58377382	     -1.16547249	      0.42910150	      1.06720878	     -1.16547249	      0.29850880	      1.06720878	     -0.95980088	      0.24253677	      0.89506134	     -0.89124367	      0.14924134	      0.67989899	     -0.82268646	      1.86562124	      4.96523777	     -6.10071375	      0.00000000	      0.00000000	     28.08493165	     -6.97232810	     -8.33781770	     15.98512101	     -8.50625190	     81.76687253	     49.27744761	     86.36922200	      4.90706352	     30.28282609	     17.05728779	     -6.15672833	     76.67754851	     44.40377469	     89.08164401	     38.65853135	     34.08264012
      1.20338983	      3.06834500	     -6.04558309	     99.73002234	      0.20954687	      1.00224478	      0.42541379	      5.56857044	      2.47220011	     -6.41520149	      4.60088234	      0.08030055	     22.22145136	     -9.48705720	      0.00000000	      5.51141754	     -0.77141194	      9.41676048	      4.73352489	      0.08261559	     18.81893174	     -4.81195395	      0.00000000	      0.28646047	      0.44574777	     -1.14098445	      0.53198575	      0.59284453	     -1.21229598	      0.47062591	      1.08379112	     -1.21229598	      0.32739568	      1.08379112	     -0.99836140	      0.26600720	      0.90896884	     -0.92704987	      0.16368351	      0.69046329	     -0.85573834	      2.04615852	      5.04238787	     -6.34581323	      0.00000000	      0.00000000	     28.11785882	     -6.37703602	     -7.38852451	     16.20510532	     -8.49490702	     82.61911609	     49.08630235	     84.48872569	      4.73695818	     30.16246536	     16.62660285	     -6.30576064	     75.94546135	     44.66289416	     89.07808890	     38.02618226	     34.06125057
      1.22033898	      2.97476131	     -6.01119901	     99.34187356	      0.20997320	      1.00234231	      0.42500571	      5.50908901	      2.43443517	     -5.36170850	      4.59701917	      0.08023312	     22.11528848	    -10.18134991	      0.00000000	      5.21845348	     -0.63411844	     11.49529230	      4.45729749	      0.07779452	     17.33343551	     -8.75114014	      0.00000000	      0.31336962	      0.43274884	     -1.02779599	      0.58195872	      0.57555595	     -1.09203324	      0.51483495	      1.05218552	     -1.09203324	      0.35815014	      1.05218552	     -0.89932149	      0.29099503	      0.88246143	     -0.83508424	      0.17905940	      0.67032795	     -0.77084699	      2.23836786	      4.89534140	     -5.71629296	      0.00000000	      0.00000000	     28.14943860	     -5.55914928	     -6.76000488	     16.39201331	     -8.62878607	     83.54682857	     49.12487796	     81.19204274	      3.68339993	     30.21669219	     16.78393467	     -6.25668386	     76.71669198	     44.75701174	     89.03304793	     37.82382244	     33.95491396
      1.23728814	      2.90743625	     -5.94923876	     99.61613841	      0.20967137	      1.00260790	      0.42486977	      5.37238991	      2.34105191	     -6.00814159	      4.55434166	      0.07948826	     22.37279788	     -9.40524338	      0.00000000	      5.21229791	     -0.57915950	     11.06103693	      4.60898015	      0.08044188	     17.12696112	     -7.88733746	      0.00000000	      0.33840611	      0.43052264	     -1.14952677	      0.62845398	      0.57259511	     -1.22137220	      0.55596740	      1.04677274	     -1.22137220	      0.38676434	      1.04677274	     -1.00583593	      0.31424391	      0.87792176	     -0.93399050	      0.19336525	      0.66687957	     -0.86214508	      2.41720099	      4.87015818	     -6.39332306	      0.00000000	      0.00000000	     28.17922059	     -4.01909166	     -4.63219410	     17.52112500	     -8.37183655	     86.58489934	     48.83774054	     76.50820593	      2.82459700	     30.11560063	     16.15315045	     -6.61507734	     75.44190406	     45.16427923	     89.01685924	     36.87382265	     33.91502063
